<?xml version="1.0" encoding="iso-8859-1"?>
<!-- Uploaded to: SVG Repo, www.svgrepo.com, Generator: SVG Repo Mixer Tools -->
<svg fill="#000000" height="800px" width="800px" version="1.1" id="Layer_1" xmlns="http://www.w3.org/2000/svg" xmlns:xlink="http://www.w3.org/1999/xlink" 
	 viewBox="0 0 512 512" xml:space="preserve">
<g>
	<g>
		<path d="M501.78,270.392c-2.072-0.788-4.38,0.232-5.172,2.296l-54.244,141.06c-5.888,15.316-24.5,28.252-40.648,28.252H110.28
			c-16.148,0-34.76-12.936-40.648-28.256L15.388,272.688c-0.796-2.06-3.104-3.084-5.172-2.296c-2.056,0.792-3.088,3.108-2.296,5.172
			l54.244,141.048C69.236,435.024,90.824,450,110.28,450h291.44c19.456,0,41.04-14.976,48.112-33.38l54.244-141.056
			C504.868,273.5,503.84,271.184,501.78,270.392z"/>
	</g>
</g>
<g>
	<g>
		<path d="M500,254H12c-6.616,0-12,5.384-12,12c0,6.616,5.384,12,12,12h28c2.212,0,4-1.788,4-4c0-2.212-1.788-4-4-4H12
			c-2.208,0-4-1.792-4-4s1.792-4,4-4h488c2.208,0,4,1.792,4,4s-1.792,4-4,4H80c-2.212,0-4,1.788-4,4c0,2.212,1.788,4,4,4h420
			c6.616,0,12-5.384,12-12C512,259.384,506.616,254,500,254z"/>
	</g>
</g>
<g>
	<g>
		<path d="M127.12,443.496c-0.76-0.944-1.904-1.496-3.12-1.496h-16c-1.876,0-3.496,1.3-3.904,3.132l-8,36
			c-0.264,1.184,0.028,2.424,0.784,3.372C97.64,485.448,98.784,486,100,486h16c1.876,0,3.496-1.3,3.904-3.132l8-36
			C128.168,445.684,127.876,444.444,127.12,443.496z M112.792,478h-7.804l6.22-28h7.804L112.792,478z"/>
	</g>
</g>
<g>
	<g>
		<path d="M415.908,481.132l-8-36C407.496,443.3,405.876,442,404,442h-16c-1.216,0-2.36,0.552-3.124,1.496
			c-0.756,0.952-1.044,2.188-0.784,3.372l8,36C392.504,484.7,394.124,486,396,486h16c1.216,0,2.36-0.552,3.124-1.496
			C415.88,483.552,416.168,482.316,415.908,481.132z M399.208,478l-6.22-28h7.804l6.22,28H399.208z"/>
	</g>
</g>
<g>
	<g>
		<path d="M82,26c-20.952,0-38,17.048-38,38v194c0,2.212,1.788,4,4,4s4-1.788,4-4V64c0-16.544,13.456-30,30-30s30,13.456,30,30
			c0,2.208,1.788,4,4,4s4-1.792,4-4C120,43.048,102.952,26,82,26z"/>
	</g>
</g>
<g>
	<g>
		<path d="M116,62c-19.852,0-36,16.152-36,36c0,2.208,1.788,4,4,4h64c2.212,0,4-1.792,4-4C152,78.152,135.852,62,116,62z M88.284,94
			c1.948-13.552,13.628-24,27.712-24c14.084,0,25.772,10.448,27.716,24H88.284z"/>
	</g>
</g>
</svg>