<?xml version="1.0" encoding="iso-8859-1"?>
<!-- Uploaded to: SVG Repo, www.svgrepo.com, Generator: SVG Repo Mixer Tools -->
<svg fill="#000000" height="800px" width="800px" version="1.1" id="Layer_1" xmlns="http://www.w3.org/2000/svg" xmlns:xlink="http://www.w3.org/1999/xlink" 
	 viewBox="0 0 512.002 512.002" xml:space="preserve">
<g>
	<g>
		<path d="M361.581,249.174l-90.752-90.752c-1.564-1.564-4.092-1.564-5.656,0c-1.564,1.564-1.564,4.092,0,5.656l90.752,90.752
			c0.78,0.78,1.804,1.172,2.828,1.172s2.048-0.392,2.828-1.172C363.145,253.265,363.145,250.737,361.581,249.174z"/>
	</g>
</g>
<g>
	<g>
		<path d="M412.209,299.794l-24.044-24.04c-1.564-1.564-4.092-1.564-5.656,0c-1.564,1.564-1.564,4.092,0,5.656l24.044,24.04
			c0.78,0.78,1.804,1.172,2.828,1.172s2.044-0.388,2.828-1.172C413.773,303.885,413.773,301.357,412.209,299.794z"/>
	</g>
</g>
<g>
	<g>
		<path d="M462.829,373.174l-120-120.004c-1.564-1.564-4.092-1.564-5.656,0c-1.564,1.564-1.564,4.092,0,5.656l120,120.004
			c0.78,0.78,1.804,1.172,2.828,1.172s2.048-0.392,2.828-1.172C464.393,377.266,464.393,374.737,462.829,373.174z"/>
	</g>
</g>
<g>
	<g>
		<path d="M145.581,249.174l-90.752-90.752c-1.564-1.564-4.092-1.564-5.656,0c-1.564,1.564-1.564,4.092,0,5.656l90.752,90.752
			c0.78,0.78,1.804,1.172,2.828,1.172s2.048-0.392,2.828-1.172C147.145,253.265,147.145,250.737,145.581,249.174z"/>
	</g>
</g>
<g>
	<g>
		<path d="M196.209,299.794l-24.044-24.04c-1.564-1.564-4.092-1.564-5.656,0c-1.564,1.564-1.564,4.092,0,5.656l24.044,24.04
			c0.78,0.78,1.804,1.172,2.828,1.172s2.044-0.388,2.828-1.172C197.773,303.885,197.773,301.357,196.209,299.794z"/>
	</g>
</g>
<g>
	<g>
		<path d="M246.829,373.174l-120-120.004c-1.564-1.564-4.092-1.564-5.656,0c-1.564,1.564-1.564,4.092,0,5.656l120,120.004
			c0.78,0.78,1.804,1.172,2.828,1.172s2.048-0.392,2.828-1.172C248.393,377.266,248.393,374.737,246.829,373.174z"/>
	</g>
</g>
<g>
	<g>
		<path d="M508.001,48.002h-504c-2.208,0-4,1.792-4,4v408c0,2.212,1.792,4,4,4h504c2.208,0,4-1.788,4-4v-408
			C512.001,49.794,510.209,48.002,508.001,48.002z M504.001,456.002h-496v-400h496V456.002z"/>
	</g>
</g>
<g>
	<g>
		<path d="M484.001,72.002h-456c-2.208,0-4,1.792-4,4v340c0,2.212,1.792,4,4,4s4-1.788,4-4v-336h452c2.208,0,4-1.792,4-4
			S486.209,72.002,484.001,72.002z"/>
	</g>
</g>
<g>
	<g>
		<path d="M484.001,92.002c-2.208,0-4,1.792-4,4v336h-452c-2.208,0-4,1.788-4,4c0,2.212,1.792,4,4,4h456c2.208,0,4-1.788,4-4v-340
			C488.001,93.794,486.209,92.002,484.001,92.002z"/>
	</g>
</g>
<g>
	<g>
		<path d="M460.001,96.002h-192c-2.208,0-4,1.792-4,4v312c0,2.212,1.792,4,4,4h192c2.208,0,4-1.788,4-4v-312
			C464.001,97.794,462.209,96.002,460.001,96.002z M456.001,408.002h-184v-304h184V408.002z"/>
	</g>
</g>
<g>
	<g>
		<path d="M244.001,96.002h-192c-2.208,0-4,1.792-4,4v312c0,2.212,1.792,4,4,4h192c2.208,0,4-1.788,4-4v-312
			C248.001,97.794,246.209,96.002,244.001,96.002z M240.001,408.002h-184v-304h184V408.002z"/>
	</g>
</g>
<g>
	<g>
		<path d="M148.001,96.002c-2.208,0-4,1.792-4,4v308c0,2.212,1.792,4,4,4s4-1.788,4-4v-308
			C152.001,97.794,150.209,96.002,148.001,96.002z"/>
	</g>
</g>
<g>
	<g>
		<path d="M364.001,96.002c-2.208,0-4,1.792-4,4v308c0,2.212,1.792,4,4,4s4-1.788,4-4v-308
			C368.001,97.794,366.209,96.002,364.001,96.002z"/>
	</g>
</g>
<g>
	<g>
		<path d="M244.001,252.002h-192c-2.208,0-4,1.792-4,4c0,2.208,1.792,4,4,4h192c2.208,0,4-1.792,4-4
			C248.001,253.794,246.209,252.002,244.001,252.002z"/>
	</g>
</g>
<g>
	<g>
		<path d="M460.001,252.002h-192c-2.208,0-4,1.792-4,4c0,2.208,1.792,4,4,4h192c2.208,0,4-1.792,4-4
			C464.001,253.794,462.209,252.002,460.001,252.002z"/>
	</g>
</g>
<g>
	<g>
		<path d="M510.829,49.174c-1.564-1.564-4.092-1.564-5.656,0l-24,24c-1.564,1.564-1.564,4.092,0,5.656
			c0.78,0.78,1.804,1.172,2.828,1.172s2.048-0.392,2.828-1.172l24-24C512.393,53.265,512.393,50.738,510.829,49.174z"/>
	</g>
</g>
<g>
	<g>
		<path d="M30.829,73.174l-24-24c-1.564-1.564-4.092-1.564-5.656,0c-1.564,1.564-1.564,4.092,0,5.656l24,24
			c0.78,0.78,1.804,1.172,2.828,1.172s2.048-0.392,2.828-1.172C32.393,77.265,32.393,74.738,30.829,73.174z"/>
	</g>
</g>
<g>
	<g>
		<path d="M30.829,433.174c-1.564-1.564-4.092-1.564-5.656,0l-24,24c-1.564,1.564-1.564,4.092,0,5.656
			c0.78,0.78,1.804,1.172,2.828,1.172s2.048-0.392,2.828-1.172l24-24C32.393,437.266,32.393,434.737,30.829,433.174z"/>
	</g>
</g>
<g>
	<g>
		<path d="M510.829,457.174l-24-24c-1.564-1.564-4.092-1.564-5.656,0c-1.564,1.564-1.564,4.092,0,5.656l24,24
			c0.78,0.78,1.804,1.172,2.828,1.172s2.048-0.392,2.828-1.172C512.393,461.266,512.393,458.737,510.829,457.174z"/>
	</g>
</g>
</svg>